<svg xmlns="http://www.w3.org/2000/svg" viewBox="0 0 200 87.28"><defs><style>.cls-1{fill:#fff;}</style></defs><title>armory-wharf-logo-200px</title><g id="Layer_2" data-name="Layer 2"><g id="NAV"><path class="cls-1" d="M0,87.28H131.41V28L0,40.57ZM116.28,53.11l.54-1,.15-.54.27-.54.27-1.09.4-.4a9.6,9.6,0,0,0,3.13,0h.82l.4.13a5.06,5.06,0,0,1-.13,1.63,7.33,7.33,0,0,0-.81,2.44.62.62,0,0,0-.28.28l-.14.41-.13.55-.54,1.48-.15.55-.12.4-.82,2.17.13.55a1,1,0,0,0-.4.41l-.69,1.76-.12.83a2.79,2.79,0,0,1-1,.67,5.53,5.53,0,0,1-.4-2l-.15-.26a.63.63,0,0,0-.13-.42l-.27-1.08-.41-1v-.4l-.28-.27-.12-.42-.15-.54-.13-1A9.38,9.38,0,0,0,116.28,53.11Zm-9.51-3.66a11,11,0,0,0,2.44,0l.27.14h1.09a.31.31,0,0,0,.27-.14,1.52,1.52,0,0,0,.55.14,10.61,10.61,0,0,0,.68,2.57v.4l.41,1.09.14.42a.61.61,0,0,0,.13.41,5.63,5.63,0,0,0,.41,1.49l.13.81.27.42a7.63,7.63,0,0,0,.55,1.89,4.37,4.37,0,0,0,.41,1.37v.4a.26.26,0,0,0,.13.27l.27,1.09a3.29,3.29,0,0,0,.54,1.36,2.36,2.36,0,0,0,.28.94,3.71,3.71,0,0,0,.41,1.38l.27.94.13.82a2.43,2.43,0,0,0,.42.67,16,16,0,0,0-.15,3.41,6,6,0,0,1-.12,1.08l.12.54-.12,2.32.12.55a2.55,2.55,0,0,1-.4,2l.13.27h-4.2l-.82-.54a13.64,13.64,0,0,1,.27-3.14l-.14-.25a11.91,11.91,0,0,0,.14-2.18v-.68c0-.6,0-1.33,0-2.18V68.07a10,10,0,0,1-.81-2.86l-.15-.27-.27-.27-.27-1.09-.13-.54a2.81,2.81,0,0,0-.54-1.49v-.42l-.27-.67-.15-.69-.12-.54a.87.87,0,0,1-.15-.54,11.34,11.34,0,0,0-.81-2.32V55.7l-.28-.55a10.77,10.77,0,0,0-.67-2.17l-.69-2.17v-.42l-.12-.26Zm-8.5,0q5.87.45,5.94,6.35,1.32,5-2.49,7.87v.55a4.28,4.28,0,0,1,1.66,1.11l.28.14.41,1a3.86,3.86,0,0,0,.27,1.1V78l-.13.42a9.32,9.32,0,0,1-2.49,0l-.54.14h-.42l-.29-.14-.4.14h-.7a13.76,13.76,0,0,1-.13-3.45V69.72a4.87,4.87,0,0,0-.14-1.79v-.42a2.17,2.17,0,0,0-1.79-.83L97,65.85a12.44,12.44,0,0,0-.15-2.75v-.41a2.52,2.52,0,0,1,1.79-1.4q1.88-5.84-1.79-7.59a3.28,3.28,0,0,0-.27-2.62Q96.59,49.6,98.27,49.43ZM89,49.85a2.74,2.74,0,0,0,1.24-.42,7.93,7.93,0,0,0,2.48-.14,7.39,7.39,0,0,1,1.38.41,7.59,7.59,0,0,0,.14,2.21l-.14.27v2.49l.14.42-.14.69v1l.14.56v1.51a10.15,10.15,0,0,1,0,2.21v1.11l.14.41a25.07,25.07,0,0,0-.14,4.29v1a13.23,13.23,0,0,1-.14,3l.14,1,.14,3V77.6l-.41,1H89.44V72.07l-.14-.42V71a8.94,8.94,0,0,0,0-1.94l.14-.68a11.56,11.56,0,0,1,0-2.21l-.14-.42.14-.41v-.69a26.35,26.35,0,0,1-.14-3.45v-1a14.65,14.65,0,0,0-.13-3V55.64l.13-.55-.13-1.8a19.23,19.23,0,0,0-.14-3Zm-10.16.84.4-.81a8.53,8.53,0,0,1,4.62,2.72,2.46,2.46,0,0,0,.67,1.21L84.84,56l.13.28.13.4A7.43,7.43,0,0,0,85.39,59l.13.54v.55A4.64,4.64,0,0,0,85.65,62v1.09l.14.55-.14.54a17.8,17.8,0,0,1-.13,4v2.57a6.51,6.51,0,0,0-.42,2.47l-.26.8-.28,1.37A8.15,8.15,0,0,1,80,78.69a8.08,8.08,0,0,1-.68-4.76v-.55a4.11,4.11,0,0,0,1.35-1.49,30.59,30.59,0,0,0-.12-4.2l.12-.69-.27-.4.27-.69V56.67A4.41,4.41,0,0,0,79,54.5a3.87,3.87,0,0,0-.12-1A8,8,0,0,0,78.87,50.69ZM70.42,61.17V57.91l.15-.42.14-.42v-.94a17.85,17.85,0,0,0,.4-2.32l.15-.4.39-.94A9.82,9.82,0,0,1,76,49.61c.78.14,1,1.58.81,4.34a2.06,2.06,0,0,1-1.09,1.24l-.13.54-.28.4v2.72a.69.69,0,0,0,.14.4l-.14.54v.42a8.52,8.52,0,0,1,0,1.9l.14,1.77v3l.14.69-.14.94a5.17,5.17,0,0,1,.14,1.77,12.81,12.81,0,0,0,.13,2.18,2.39,2.39,0,0,0,1.36,1.09l.27.81a7.68,7.68,0,0,0,0,1.36,8.13,8.13,0,0,0,0,2.32l-.12.4A4.9,4.9,0,0,1,72.34,76l-.29.13a14.06,14.06,0,0,0-.79-2.72l-.15-.8a3.42,3.42,0,0,0-.27-1.37l-.13-1.89V68.9a7.26,7.26,0,0,1-.29-2.17,2.11,2.11,0,0,0-.12-1.09l.12-.41A18.22,18.22,0,0,1,70.42,61.17Zm-8.73-11,0-.41.56-.53a8.92,8.92,0,0,0,3.55.22l.27.15a14,14,0,0,1,.06,2.73v.82l0,1.64v.4l.13.29a1.33,1.33,0,0,0,.11.68,3.19,3.19,0,0,0,0,1.51.83.83,0,0,0,0,.55,1.66,1.66,0,0,0,0,.67l-.16.54.13.83v.55l0,1.08,0,.69A7.13,7.13,0,0,0,66.28,64l0,1.5.13.27-.14.54a3.88,3.88,0,0,1,0,1.51,4.22,4.22,0,0,1,.09,1.1l.13.82-.31.81.28.56a12.59,12.59,0,0,1-.19,1.63l.11,1.1v.4a.51.51,0,0,0,0,.42l0,.42v.4a.49.49,0,0,0,0,.41l0,.55,0,1.5a10.74,10.74,0,0,1-4.25.17A14.36,14.36,0,0,1,61.52,74l.14-.27a6.67,6.67,0,0,1,.06-2.87,4.23,4.23,0,0,1-.08-2,8.27,8.27,0,0,1-.09-1.65l0-6.7a6.8,6.8,0,0,0-.1-1.92L61.64,52A16.49,16.49,0,0,1,61.69,50.21Zm-13.4-.33.56-.4a4.06,4.06,0,0,1,1.51.17,4.48,4.48,0,0,1,1.08-.11l.42,0h1a12.13,12.13,0,0,0,.88,2.9V53l.25.29.5,2.34.25.54a1.77,1.77,0,0,0,.26.7l.11.82a5.93,5.93,0,0,0,.77,2.2,3.24,3.24,0,0,0,.37,1.52l.12.82.68.29.73-2,.31-1.08.16-.82.27-.25.16-.55a2.57,2.57,0,0,1,1.08.29,6.11,6.11,0,0,1-.19,2.05l.13.29-.14.4.12.41v.54l0,.42,0,1.92a3.72,3.72,0,0,0,.1,1.5l-.14.4.12.56a15.08,15.08,0,0,0-.2,3l.11,1L58.94,73l-.29.14v.82l-.29.54,0,.54-.28.67-.15.55a1.81,1.81,0,0,0,0,.81l-.29,1a5.94,5.94,0,0,1-1.37.24,5.86,5.86,0,0,1-.37-1.93l-.24-1-.27-.42v-.54l-.27-.29a.51.51,0,0,0-.13-.4l-.11-.83-.11-.69-.27-.41-.11-.55-.27-.56-.48-2.2-.4-.42a7.49,7.49,0,0,0-.9-2.89,6.29,6.29,0,0,0-.51-1.65v-.41l-.39-.56a7.44,7.44,0,0,0-.63-2.21l-.25-.69a2.49,2.49,0,0,0-.26-.69,7.85,7.85,0,0,0-.9-2.62l0-.4-.27-.28-.11-1-.39-1-.4-.7Zm-.46,24.46,0-1.5.14-.42,0-1.08-.12-1.24-.11-.68,0-1.92a9.82,9.82,0,0,1,.19-2.59l0-1L48,63.26l.29-.67h.14l.94.57a14.09,14.09,0,0,0,.9,2.35v.4a5.84,5.84,0,0,1,.62,2.21l.27.29a3.2,3.2,0,0,0,.37,1.65l.11.68.26.55L52,72a7.69,7.69,0,0,1,.64,1.67l-.07,2.73.24,1v.42l-.16.54-.14.4a7.8,7.8,0,0,0-1.36.11l-1.52,0-.4.13-.42-.14-.27.13-.41-.15a1.93,1.93,0,0,0-.26-.68,5.75,5.75,0,0,0-.08-2.2A5.31,5.31,0,0,0,47.83,74.34ZM37.63,49.43q5.86.45,5.94,6.35c.88,3.31,0,5.94-2.49,7.87v.55a4.35,4.35,0,0,1,1.66,1.11l.27.14.42,1a3.86,3.86,0,0,0,.27,1.1V78l-.13.42a9.33,9.33,0,0,1-2.49,0l-.54.14h-.42l-.29-.14-.4.14h-.7a13.76,13.76,0,0,1-.13-3.45V69.72a5.09,5.09,0,0,0-.14-1.79v-.42a2.18,2.18,0,0,0-1.79-.83l-.28-.83a11.79,11.79,0,0,0-.14-2.75v-.41A2.5,2.5,0,0,1,38,61.29q1.88-5.84-1.79-7.59A3.28,3.28,0,0,0,36,51.08Q36,49.6,37.63,49.43Zm-9.25.42a2.74,2.74,0,0,0,1.25-.42,8,8,0,0,0,2.48-.14,7.11,7.11,0,0,1,1.37.41,8,8,0,0,0,.15,2.21l-.15.27v2.49l.15.42-.15.69v1l.15.56v1.51a11.59,11.59,0,0,1,0,2.21v1.11l.14.41a24.08,24.08,0,0,0-.14,4.29v1a13.91,13.91,0,0,1-.15,3l.15,1,.14,3V77.6l-.41,1H28.8V72.07l-.14-.42V71a8.94,8.94,0,0,0,0-1.94l.14-.68a10.12,10.12,0,0,1,0-2.21l-.14-.42.14-.41v-.69a23.25,23.25,0,0,1-.14-3.45v-1a14.65,14.65,0,0,0-.13-3V55.64l.13-.55-.13-1.8a19.42,19.42,0,0,0-.15-3Zm-13.73-.5a1,1,0,0,0,1-.54,4.2,4.2,0,0,0,3.56.41,2.06,2.06,0,0,0,.69.69,11.83,11.83,0,0,0,.42,2.88v.69l.13.54a.56.56,0,0,0,.14.41l.13,1.09.14.56v.67a.46.46,0,0,1,.27.29.58.58,0,0,0,.15.4,4.65,4.65,0,0,0,.27,1.92A4.86,4.86,0,0,0,22.2,62a7.4,7.4,0,0,0,.4,2.48l.14,1a16.14,16.14,0,0,0,.54,2.32,14.91,14.91,0,0,0,.42,2.21v.4a.38.38,0,0,0,.14.29l.27,1.08v.56l.42.55L24.66,75l.14.27.55,2.19v1l-2.47-.13h-.41a2.69,2.69,0,0,0-1.1.13L21,78.29h-.67a14.57,14.57,0,0,1-1-4.4,6.47,6.47,0,0,0-2.21-.12c0-.1-.11-.19-.27-.28l-.13-1a6.18,6.18,0,0,0,.67-3.29l1.11-.41a14.33,14.33,0,0,1-.55-2.2l-.14-.27a.27.27,0,0,0-.13-.27,6.51,6.51,0,0,0-.14-1.79,5.49,5.49,0,0,1-.15-1.38,4.27,4.27,0,0,1-.39-1.5l-.15-.54-.13-.69a6.16,6.16,0,0,1-.28-2.06l-.13-.27L16,57.17l-.15-1-.14-.69a5.34,5.34,0,0,1-.27-1.09.94.94,0,0,0-.28-.82l-.12-1-.29-.82V51l-.27-.82ZM9.44,76a11.71,11.71,0,0,1,.69-3L10.4,71l.14-.82.27-1,.4-1.92v-.69l.29-.54a7.73,7.73,0,0,1,.4-2.33l.56-2.88.27-1.11v-.54l.42-.69,1,.27a7.81,7.81,0,0,0,.27,2.2,4.08,4.08,0,0,0,.27,1.79v.54l.13.27v.56l.14.55.27,2.73a.57.57,0,0,0,.15.41v.42l.13.55a4.27,4.27,0,0,1-.4,2.06V72l-.15.42v.42L14.78,74l-.13.27v.54a8.13,8.13,0,0,0-.27,2.48l-.15.27-.12.55a5.76,5.76,0,0,0-2.21.41l-1.77-.14H9.29L9,78A5.23,5.23,0,0,1,9.44,76ZM134.65,87.28H200V43.19L134.65,38Zm12.88-20.11v.43a1.05,1.05,0,0,0-.74.68,5.37,5.37,0,0,0,.06,1.34l-.06.19v.24l.06.19a1,1,0,0,0,0,.6,2.51,2.51,0,0,0-.06.8v1.72l-.06.18.06.24-.06.18a4,4,0,0,1,0,1l.12,1a1.7,1.7,0,0,1,.61,1.22,2.54,2.54,0,0,0,0,1.1l-.05.13-.56.12a4.94,4.94,0,0,1-2.2-1.71,4,4,0,0,1-.24-1.6v-.67a4.4,4.4,0,0,1-.07-.86l.07-.12a4.09,4.09,0,0,1,0-.86v-1.4a1.51,1.51,0,0,1,0-.67l-.07-.26.07-.3V68.58l.06-.37.06-.42a4.27,4.27,0,0,0,.43-.86l.06-.12.3-.31.06-.19a3.11,3.11,0,0,0,.74-.36l.18-.06h.19l.3-.25.19,0s.08,0,.12-.13l.43.06a3.34,3.34,0,0,1-.07.79A4.47,4.47,0,0,1,147.53,67.17Zm3.42,9c-.37,1.6-1.27,2.33-2.69,2.2a7.12,7.12,0,0,1,.06-1v-.24a2.71,2.71,0,0,1-.06-.49l.13-.18-.07-.12a1.48,1.48,0,0,0,.86-.81,8.4,8.4,0,0,0-.06-1.34l.25-.43,1.1.37.43.18.18.12A3.54,3.54,0,0,1,151,76.17Zm-2.56-8.38v-2.2a.29.29,0,0,0,.12-.19A3.13,3.13,0,0,1,151,67.91a2.64,2.64,0,0,1,.07,1.4,1,1,0,0,0-.55.25,2.69,2.69,0,0,0-.93.37l-.12.06-.24-.06a3.85,3.85,0,0,1-.06-1.1v-.37A1.77,1.77,0,0,0,148.39,67.79ZM184,61.93l.07-.2v-12l.27-.34h1.34l.21.07h.74a3,3,0,0,1,.53.06h1.15l.47-.06a3.51,3.51,0,0,0,.8,0l.13.06h.55l.4-.06.4.13a4,4,0,0,1-.27,2.28,4.21,4.21,0,0,1-1.08-.06l-.13.06-.13-.06-.21.06h-.8a2.46,2.46,0,0,1-.74-.06l-.34.06-.26-.06a1.33,1.33,0,0,0-.55.27l-.06,1.21v.2l.06.54-.06.33.06.21-.06.33a5.58,5.58,0,0,0,2.22.13l.34.14a4.89,4.89,0,0,1,0,1.21l.06.14V57l-.27.46h-2.21l-.21-.06v6.32l-.34.13a3.29,3.29,0,0,0-1.61-.07l-.2.07-.27-.13a4.87,4.87,0,0,1,.07-1.48Zm-4.92-12.35A2.83,2.83,0,0,1,182,52.7a3.38,3.38,0,0,1-1.23,3.87v.27a2.08,2.08,0,0,1,.82.54l.13.08.21.47a1.94,1.94,0,0,0,.13.54v5.15l-.06.21a4.17,4.17,0,0,1-1.23,0l-.26.07h-.21l-.14-.07-.2.07h-.34a6.48,6.48,0,0,1-.06-1.7V59.55a2.49,2.49,0,0,0-.08-.88v-.2a1.05,1.05,0,0,0-.88-.41l-.13-.41a6,6,0,0,0-.07-1.35v-.21a1.24,1.24,0,0,1,.88-.68c.61-1.91.32-3.16-.88-3.73a1.63,1.63,0,0,0-.13-1.29C178.24,49.9,178.5,49.63,179.06,49.58Zm-4.55.2a1.3,1.3,0,0,0,.62-.2,3.94,3.94,0,0,0,1.21-.07,3.73,3.73,0,0,1,.68.2,3.8,3.8,0,0,0,.07,1.08l-.07.14v1.23l.07.2-.07.34v.47l.07.27v.75a4.94,4.94,0,0,1,0,1.09v.54l.07.2a12.15,12.15,0,0,0-.07,2.11v.47a6.64,6.64,0,0,1-.07,1.49l.07.48.07,1.5v1.36l-.2.47h-2.24V60.71l-.07-.21v-.33a5,5,0,0,0,0-1l.07-.34a4.93,4.93,0,0,1,0-1.09l-.07-.2.07-.21V57a10.51,10.51,0,0,1-.07-1.69v-.48a7.57,7.57,0,0,0-.07-1.5v-.74l.07-.27-.07-.89a9.26,9.26,0,0,0-.07-1.49Zm-1.25,15.67a3.08,3.08,0,0,1,.86,0h.25l.3-.06a3.75,3.75,0,0,0,1.05.06h.37a.67.67,0,0,0,.12.31.93.93,0,0,0,0,.8l-.06.43.06.25-.18.31a5.36,5.36,0,0,1-1.61,0,4.37,4.37,0,0,1-.73,0,3.87,3.87,0,0,1-.87.06,1.66,1.66,0,0,0-.61-.13H172a5.87,5.87,0,0,0-.06,1.24v.36a5.86,5.86,0,0,1-.06.74v.25l-.13.19v.24l.31.12a4.36,4.36,0,0,1,1.48-.12h.8l.19.19v1.72l-.07.12-.24.25a1.62,1.62,0,0,0-.74.06l-.18-.06a3.19,3.19,0,0,1-.62,0h-.56l-.18-.12v2.21l-.06.44v.18l-.13.49,1.24-.06h.18l.19.06h1.91l.3-.06a1.26,1.26,0,0,1,.56.25l-.06.18v1.42L176,78v.3l-.07.19s-.08,0-.12.12a3.7,3.7,0,0,0-1-.06H174l-.18-.06h-2.65l-.68-.12h-.24l-.25.12-.37-.06a5,5,0,0,1-.06-1V69q0-.41.06-1.11v-.87a5.43,5.43,0,0,0-.06-1.35,2.12,2.12,0,0,0,.37-.37h1.48l.18.06h.19a2.44,2.44,0,0,1,.73.06l.13-.06.43.06Zm-5.5-15.91a.47.47,0,0,0,.47-.27,2.09,2.09,0,0,0,1.75.21,1.08,1.08,0,0,0,.34.33,6.3,6.3,0,0,0,.21,1.42v.34l.06.26a.3.3,0,0,0,.07.21l.06.53.08.28v.33s.09.06.13.14a.25.25,0,0,0,.07.19,2.43,2.43,0,0,0,.13,1,2.39,2.39,0,0,0,.34,1.28,3.74,3.74,0,0,0,.2,1.22l.07.47a7.42,7.42,0,0,0,.26,1.14,7.31,7.31,0,0,0,.21,1.09v.19a.15.15,0,0,0,.07.14l.13.54v.27l.21.27.06,1.08.07.13.27,1.08v.47l-1.21-.06h-.21a1.22,1.22,0,0,0-.54.06l-.2-.06h-.33a6.81,6.81,0,0,1-.47-2.17,3.43,3.43,0,0,0-1.09-.06s-.05-.09-.13-.13l-.07-.47a3,3,0,0,0,.33-1.62l.55-.21a7.18,7.18,0,0,1-.27-1.07l-.07-.14a.13.13,0,0,0-.06-.13,3.57,3.57,0,0,0-.07-.88,2.64,2.64,0,0,1-.08-.68,2.08,2.08,0,0,1-.19-.74l-.07-.26-.07-.34a3.17,3.17,0,0,1-.14-1l-.06-.13-.14-.34-.07-.47-.07-.34a3.39,3.39,0,0,1-.13-.53.48.48,0,0,0-.13-.41l-.06-.47-.15-.4v-.41l-.13-.4ZM165.2,62.62a6,6,0,0,1,.33-1.49l.14-.94.07-.4.13-.47.2-1V58l.14-.27a4,4,0,0,1,.2-1.15l.27-1.41.14-.55V54.4l.2-.34.47.13a4,4,0,0,0,.14,1.08,1.89,1.89,0,0,0,.13.88v.27l.06.13v.28l.07.26.14,1.35a.29.29,0,0,0,.07.2v.21l.06.26a2.14,2.14,0,0,1-.19,1v.53l-.08.2v.21l-.07.6-.06.14v.27a3.9,3.9,0,0,0-.13,1.21l-.07.14-.07.27a2.83,2.83,0,0,0-1.08.2l-.88-.07h-.4l-.14-.2A2.73,2.73,0,0,1,165.2,62.62Zm-.79,2.83h1l.43-.06a2.93,2.93,0,0,0,.73,0l.12.06h.5l.36-.06.37.12a3.53,3.53,0,0,1-.25,2.08,4.44,4.44,0,0,1-1-.06l-.12.06-.12-.06-.19.06h-.73a2.77,2.77,0,0,1-.67-.06l-.31.06-.24-.06a1.14,1.14,0,0,0-.49.25l-.06,1.1v.18l.06.49-.06.31.06.18-.06.3a5.16,5.16,0,0,0,2,.13l.3.12a4.12,4.12,0,0,1,0,1.11l.06.12v.43l-.24.42h-2l-.19-.06v5.75l-.3.13a2.87,2.87,0,0,0-1.47-.07l-.19.07-.24-.13A4.29,4.29,0,0,1,161.6,77l-.07-.31.07-.18V65.64l.24-.31h1.22l.19.06h.67A2.49,2.49,0,0,1,164.41,65.45ZM160.06,57V56a.74.74,0,0,1,.6-.33,3.11,3.11,0,0,0-.13-1.35.8.8,0,0,0,0-.53l.07-1.08v-.21l-.07-.13v-.67a4.08,4.08,0,0,0,0-1.48,3.4,3.4,0,0,1,.27-.68h2.56a10.4,10.4,0,0,0,0,2.63l-.07.33.07.54-.07.21a5.81,5.81,0,0,0,.07,1.34l-.07.47.07.28-.07,1.07.07.14-.07.26.07.14v.2l-.07.4V58l.07.41-.07.4a6.14,6.14,0,0,0,.07,1.08v3.91h-2.63a6.38,6.38,0,0,1-.07-1.29l-.06-3.16a6.68,6.68,0,0,0,0-1.27.72.72,0,0,1-.54-.21A2.53,2.53,0,0,0,160.06,57Zm-4.44,3.3.07-.21a2.72,2.72,0,0,1,0-1.21,6.19,6.19,0,0,1-.07-1.54V49.77a3.12,3.12,0,0,1,1.41-.34,7,7,0,0,1,1.21.13l.07,1.35v.88a3.29,3.29,0,0,0,.07,1.14,1.64,1.64,0,0,0,0,.88l-.07.19a1.29,1.29,0,0,1,0,.28,3,3,0,0,1,.07.93l-.07.48a.94.94,0,0,0,.4.07,1.29,1.29,0,0,0,.21.4v1.62a.51.51,0,0,1-.61.4v2.56a2.8,2.8,0,0,0,.07.93,7.87,7.87,0,0,0,0,1.69l-.07.2v.21l-.2.13a2.84,2.84,0,0,0-1.14-.07,1.41,1.41,0,0,0-.41,0,.31.31,0,0,0-.2.07l-.61-.13a7,7,0,0,1-.06-2.7Zm-.46,5.16a.43.43,0,0,0,.43-.24,1.93,1.93,0,0,0,1.6.18.88.88,0,0,0,.3.31,5.63,5.63,0,0,0,.19,1.29v.3l.06.25a.22.22,0,0,0,.06.18l.06.49.06.25v.3c.05,0,.09.06.13.13a.22.22,0,0,0,.06.18,2.36,2.36,0,0,0,.12.86,2.13,2.13,0,0,0,.31,1.16,3.29,3.29,0,0,0,.18,1.11l.06.43a6.37,6.37,0,0,0,.25,1,5.68,5.68,0,0,0,.18,1v.18a.15.15,0,0,0,.07.12l.12.49v.25l.18.24.06,1,.07.13.24,1v.44l-1.1-.06h-.19a1,1,0,0,0-.49.06l-.19-.06h-.3a6.65,6.65,0,0,1-.43-2,3.1,3.1,0,0,0-1-.06s0-.08-.12-.12l-.06-.43a2.75,2.75,0,0,0,.31-1.47l.49-.19a6.69,6.69,0,0,1-.24-1l-.07-.12s0-.08-.06-.12a2.93,2.93,0,0,0-.06-.8,2.83,2.83,0,0,1-.06-.62,1.8,1.8,0,0,1-.18-.67l-.07-.24-.06-.31a2.86,2.86,0,0,1-.13-.92l0-.13-.12-.3-.07-.43-.06-.31a3.17,3.17,0,0,1-.12-.49.45.45,0,0,0-.12-.37l-.06-.43-.13-.36v-.37l-.12-.37Zm-.86,4.66v-.24l.19-.31.43.12a3.58,3.58,0,0,0,.12,1,2,2,0,0,0,.12.8v.25l.06.12v.25l.06.24.13,1.23a.25.25,0,0,0,.06.19v.18l.06.24a2,2,0,0,1-.18.93v.48l-.07.19v.18l-.06.56-.06.12v.24A3.62,3.62,0,0,0,155,78l-.06.12-.06.24a2.77,2.77,0,0,0-1,.19l-.79-.06h-.37l-.13-.18a2.45,2.45,0,0,1,.19-.93,4.89,4.89,0,0,1,.31-1.35l.12-.86.06-.36.12-.43.18-.86v-.31l.13-.24a3.9,3.9,0,0,1,.18-1l.25-1.28Zm-2.89-18.7a3.67,3.67,0,0,1,.14-.88,2.3,2.3,0,0,0,0-.74l.13-.26H154a6.92,6.92,0,0,1-.27,2.35v.2l-.13.55a5,5,0,0,1-.21,1.27,2.59,2.59,0,0,1-.2,1.08l.07.13a4,4,0,0,1-.21.74v.6l-.4.14-.26-.41a2.6,2.6,0,0,0-.41-1.61,2.56,2.56,0,0,0-.14-.6l-.06-.21-.07-.33-.13-.27v-.27l-.21-.2a.39.39,0,0,0-.13-.21A2.61,2.61,0,0,1,151.41,51.39Zm-3.16.07v-.34l.14-.2.13-.54.07-.27.13-.2v-.27c.05,0,.09,0,.14-.13a1.69,1.69,0,0,1,.67.2l.2.88v.2l.2.67a1.89,1.89,0,0,1,.14.67,2.56,2.56,0,0,1,.19.74l.07.27a1,1,0,0,0,.21.4v.2a.14.14,0,0,0,.06.14,3.3,3.3,0,0,0,.21.94.72.72,0,0,0,.13.34,2.81,2.81,0,0,0,.2.8l.14.54a1.07,1.07,0,0,0,.2.4l.13.55a.67.67,0,0,0,.14.33l.06.47.4,1.15a7.27,7.27,0,0,1-.19,1.47l-.07.48v.2l-.07.2V62l-.07.27v.2l-.06.2-.07.27-.07.27v.4l-.13.27h-.81l-.41-1.54-.13-.61-.06-.13-.27-1.08a4.26,4.26,0,0,0-.27-1.15l-.07-.33-.13-.27a.94.94,0,0,0-.07-.34l-.07-.4-.14-.34-.06-.4-.13-.47a.88.88,0,0,0-.14-.4,3.59,3.59,0,0,0-.33-1.41,3.48,3.48,0,0,0-.27-1.14,2.54,2.54,0,0,0-.14-.48l-.13-.54A4.29,4.29,0,0,1,148.25,51.46Zm-4.77-1.82H146a5.71,5.71,0,0,1,.48,2l.13.2v.2a.31.31,0,0,0,.07.2v.2l.13.28a3.46,3.46,0,0,0,.14.87v.21l.06.26a2.23,2.23,0,0,0,.21.67l.07.47v.21a.41.41,0,0,0,.06.2l.07.2v.26l.33,1.08a3.52,3.52,0,0,0,.14.75,3,3,0,0,0,.2.74v.53a5.15,5.15,0,0,0-.2,1.21l-.07.14a1.5,1.5,0,0,0-.07.54l-.06.27-.08.26-.13.87-.06.34-.07.34-.06.34v.33a2.21,2.21,0,0,0-.75.07,2.15,2.15,0,0,1-.33-.68.84.84,0,0,0-.14-.6,1.35,1.35,0,0,0-.14-.67v-.2a5.63,5.63,0,0,0-.26-1.14l-.07-.27a3,3,0,0,0-.13-.75v-.33l-.14-.27a2.84,2.84,0,0,0-.2-.94v-.34l-.13-.26a1.09,1.09,0,0,0-.07-.34,2.41,2.41,0,0,0-.2-1l-.07-.67-.13-.46v-.21l-.14-.6-.07-.27-.13-.41-.06-.47-.28-1.27v-.21l-.4-1.55Z"/><polygon class="cls-1" points="168.77 37.35 134.65 34.74 134.65 5.29 160.06 0 168.77 37.35"/></g></g></svg>